<?xml version="1.0" encoding="utf-8"?>
<!-- Generator: Adobe Illustrator 16.0.4, SVG Export Plug-In . SVG Version: 6.00 Build 0)  -->
<!DOCTYPE svg PUBLIC "-//W3C//DTD SVG 1.1//EN" "http://www.w3.org/Graphics/SVG/1.1/DTD/svg11.dtd">
<svg version="1.1" id="Layer_1" xmlns="http://www.w3.org/2000/svg" xmlns:xlink="http://www.w3.org/1999/xlink" x="0px" y="0px"
	 width="100px" height="100px" viewBox="0 0 100 100" enable-background="new 0 0 100 100" xml:space="preserve">
<path fill="#1CB2B0" d="M50,0c27.613,0,50,22.387,50,50c0,27.614-22.387,50-50,50C22.386,100,0,77.614,0,50C0,22.387,22.386,0,50,0z
	"/>
<path fill="#29A8A1" d="M50,100c13.299,0,25.374-5.201,34.331-13.669C92.799,77.374,98,65.299,98,52c0-11.256-3.723-21.643-10-30H23
	c-2.762,0-5,2.238-5,5v61.413C26.671,95.645,37.826,100,50,100z"/>
<path fill="#FFFFFF" d="M25,20c-2.762,0-5,2.238-5,5v65.001C28.357,96.277,38.743,100,50,100c27.613,0,50-22.386,50-50
	c0-11.256-3.723-21.643-10-30H25z"/>
<path fill="#F3F3F3" d="M100,50c0-3.781-0.434-7.459-1.229-11H20v51.001C28.357,96.277,38.743,100,50,100
	C77.613,100,100,77.614,100,50z"/>
<path fill="#CA293E" d="M29.5,26c1.934,0,3.5,1.567,3.5,3.5c0,1.934-1.566,3.5-3.5,3.5c-1.933,0-3.5-1.566-3.5-3.5
	C26,27.567,27.567,26,29.5,26z"/>
<path fill="#EFC75E" d="M39.5,26c1.934,0,3.5,1.567,3.5,3.5c0,1.934-1.566,3.5-3.5,3.5c-1.933,0-3.5-1.566-3.5-3.5
	C36,27.567,37.567,26,39.5,26z"/>
<path fill="#1CB2B0" d="M49.5,26c1.934,0,3.5,1.567,3.5,3.5c0,1.934-1.566,3.5-3.5,3.5c-1.933,0-3.5-1.566-3.5-3.5
	C46,27.567,47.567,26,49.5,26z"/>
<path fill="#E4E7E7" d="M93.869,26H60c-1.104,0-2,0.896-2,2v3c0,1.105,0.896,2,2,2h37.029C96.152,30.574,95.096,28.235,93.869,26z"
	/>
<g>
	<path fill="#DADADA" d="M30,84h13c0.553,0,1-0.447,1-1s-0.447-1-1-1H30c-0.553,0-1,0.447-1,1S29.447,84,30,84z M77,85
		c-0.553,0-1,0.447-1,1v1c0,0.553,0.447,1,1,1h5.477c1.115-0.954,2.19-1.953,3.219-3H77z M30,88h16c0.553,0,1-0.447,1-1
		s-0.447-1-1-1H30c-0.553,0-1,0.447-1,1S29.447,88,30,88z M28,49v13c0,1.105,0.896,2,2,2h67.999C99.293,59.557,100,54.861,100,50
		c0-1.008-0.039-2.007-0.098-3H30C28.896,47,28,47.896,28,49z"/>
	<circle fill="#DADADA" cx="83.5" cy="76.5" r="4.5"/>
	<path fill="#DADADA" d="M56,86v1c0,0.553,0.447,1,1,1h13c0.553,0,1-0.447,1-1v-1c0-0.553-0.447-1-1-1H57C56.447,85,56,85.447,56,86
		z M49,78H30c-0.553,0-1,0.447-1,1s0.447,1,1,1h19c0.553,0,1-0.447,1-1S49.553,78,49,78z"/>
	<circle fill="#DADADA" cx="63.5" cy="76.5" r="4.5"/>
	<path fill="#DADADA" d="M30,76h19c0.553,0,1-0.447,1-1v-2c0-0.553-0.447-1-1-1H30c-0.553,0-1,0.447-1,1v2
		C29,75.553,29.447,76,30,76z"/>
</g>
</svg>
